<svg width="360" height="195" viewBox="0 0 360 195" fill="none" xmlns="http://www.w3.org/2000/svg">
<rect x="0.856445" y="0.707031" width="358.287" height="193.585" rx="19.7949" fill="#1E4DB7"/>
<path d="M32.0453 51.3984V36.8492H41.2321V38.5535H34.1238V43.2093H40.6086V44.8721H34.1238V49.6941H41.2321V51.3984H32.0453ZM47.2869 51.6479C46.414 51.6479 45.6935 51.5024 45.1253 51.2114C44.5572 50.9204 44.1346 50.5324 43.8575 50.0474C43.5803 49.5625 43.4418 49.0359 43.4418 48.4678C43.4418 47.7888 43.6219 47.2069 43.9822 46.7219C44.3425 46.2369 44.8551 45.8628 45.5202 45.5995C46.1854 45.3363 46.989 45.2046 47.9313 45.2046H50.654C50.654 44.6088 50.5571 44.1169 50.3631 43.7289C50.1829 43.3271 49.9127 43.0292 49.5525 42.8352C49.2061 42.6273 48.7696 42.5234 48.243 42.5234C47.6195 42.5234 47.0722 42.6758 46.601 42.9807C46.1438 43.2855 45.8667 43.7358 45.7697 44.3317H43.6912C43.7743 43.5834 44.0238 42.946 44.4394 42.4195C44.869 41.8929 45.4163 41.4911 46.0814 41.214C46.7604 40.9368 47.4809 40.7983 48.243 40.7983C49.213 40.7983 50.0305 40.9715 50.6956 41.3179C51.3607 41.6505 51.8665 42.1354 52.2129 42.7728C52.5593 43.3964 52.7325 44.1446 52.7325 45.0176V51.3984H50.9242L50.758 49.6317C50.6194 49.9089 50.4393 50.1721 50.2176 50.4216C50.0097 50.671 49.7603 50.8858 49.4693 51.0659C49.1922 51.246 48.8666 51.3846 48.4924 51.4816C48.1322 51.5924 47.7303 51.6479 47.2869 51.6479ZM47.6818 49.9643C48.1253 49.9643 48.5271 49.8742 48.8874 49.6941C49.2476 49.514 49.5525 49.2715 49.8019 48.9666C50.0651 48.6479 50.2591 48.2946 50.3838 47.9066C50.5224 47.5186 50.5986 47.1168 50.6125 46.7011V46.6803H48.1391C47.5433 46.6803 47.0583 46.7496 46.6842 46.8882C46.3101 47.0267 46.0399 47.2207 45.8736 47.4701C45.7212 47.7196 45.645 48.0105 45.645 48.3431C45.645 48.6757 45.7212 48.9666 45.8736 49.2161C46.026 49.4516 46.2546 49.6387 46.5595 49.7772C46.8782 49.9019 47.2523 49.9643 47.6818 49.9643ZM55.3652 51.3984V41.0477H57.2358L57.4021 43.0222C57.6376 42.5511 57.9355 42.1493 58.2958 41.8167C58.6699 41.4842 59.1064 41.2348 59.6052 41.0685C60.1041 40.8883 60.6652 40.7983 61.2888 40.7983V42.9807H60.6652C60.2218 42.9807 59.7992 43.0361 59.3974 43.1469C59.0094 43.2578 58.6699 43.4379 58.3789 43.6873C58.088 43.9368 57.8593 44.2762 57.693 44.7058C57.5268 45.1353 57.4436 45.6688 57.4436 46.3062V51.3984H55.3652ZM63.2 51.3984V41.0477H65.0498L65.1953 42.8352C65.5279 42.2116 65.999 41.7197 66.6087 41.3595C67.2184 40.9853 67.925 40.7983 68.7287 40.7983C69.5601 40.7983 70.2737 40.9646 70.8695 41.2971C71.4653 41.6297 71.9226 42.1354 72.2413 42.8144C72.5739 43.4934 72.7401 44.3455 72.7401 45.3709V51.3984H70.6617V45.5787C70.6617 44.5811 70.4469 43.8328 70.0174 43.334C69.6017 42.8213 68.985 42.565 68.1675 42.565C67.6133 42.565 67.1144 42.6966 66.671 42.9599C66.2415 43.2232 65.902 43.6111 65.6526 44.1238C65.4032 44.6227 65.2785 45.2393 65.2785 45.9737V51.3984H63.2ZM75.524 51.3984V41.0477H77.6024V51.3984H75.524ZM76.5632 39.0108C76.1752 39.0108 75.8496 38.8861 75.5863 38.6367C75.3231 38.3873 75.1914 38.0755 75.1914 37.7014C75.1914 37.3134 75.3231 37.0016 75.5863 36.7661C75.8496 36.5167 76.1752 36.3919 76.5632 36.3919C76.9512 36.3919 77.2768 36.5167 77.5401 36.7661C77.8034 37.0016 77.935 37.3134 77.935 37.7014C77.935 38.0755 77.8034 38.3873 77.5401 38.6367C77.2768 38.8861 76.9512 39.0108 76.5632 39.0108ZM80.5746 51.3984V41.0477H82.4245L82.57 42.8352C82.9025 42.2116 83.3736 41.7197 83.9833 41.3595C84.593 40.9853 85.2997 40.7983 86.1033 40.7983C86.9347 40.7983 87.6483 40.9646 88.2442 41.2971C88.84 41.6297 89.2972 42.1354 89.6159 42.8144C89.9485 43.4934 90.1148 44.3455 90.1148 45.3709V51.3984H88.0363V45.5787C88.0363 44.5811 87.8215 43.8328 87.392 43.334C86.9763 42.8213 86.3597 42.565 85.5422 42.565C84.9879 42.565 84.4891 42.6966 84.0457 42.9599C83.6161 43.2232 83.2766 43.6111 83.0272 44.1238C82.7778 44.6227 82.6531 45.2393 82.6531 45.9737V51.3984H80.5746ZM96.9932 56.2205C96.0371 56.2205 95.1918 56.0958 94.4575 55.8463C93.7369 55.6108 93.1688 55.2436 92.7531 54.7448C92.3513 54.2459 92.1504 53.6362 92.1504 52.9157C92.1504 52.5416 92.2335 52.1675 92.3998 51.7933C92.5799 51.4192 92.857 51.059 93.2312 50.7125C93.6053 50.3661 94.1041 50.0544 94.7277 49.7772L95.8708 50.7125C95.1918 50.9758 94.7277 51.2876 94.4782 51.6479C94.2427 52.022 94.1249 52.3753 94.1249 52.7079C94.1249 53.1236 94.2496 53.47 94.499 53.7471C94.7484 54.0242 95.0879 54.2321 95.5175 54.3706C95.947 54.5092 96.432 54.5785 96.9724 54.5785C97.5128 54.5785 97.977 54.5023 98.365 54.3499C98.7668 54.1974 99.0786 53.9827 99.3003 53.7055C99.522 53.4284 99.6328 53.1028 99.6328 52.7287C99.6328 52.2991 99.4666 51.9319 99.134 51.6271C98.8153 51.3361 98.1918 51.1629 97.2634 51.1075C96.4874 51.052 95.8223 50.9758 95.2681 50.8788C94.7138 50.7818 94.2496 50.664 93.8755 50.5255C93.5014 50.3869 93.1827 50.2345 92.9194 50.0682C92.67 49.9019 92.4483 49.7287 92.2543 49.5486V49.0706L94.3535 46.9297L95.9955 47.4909L93.7716 49.611L94.208 48.6964C94.3605 48.7934 94.506 48.8904 94.6445 48.9874C94.7831 49.0706 94.9701 49.1468 95.2057 49.2161C95.4413 49.2715 95.753 49.3269 96.141 49.3823C96.5428 49.4378 97.0625 49.4932 97.6999 49.5486C98.6282 49.6179 99.3765 49.7842 99.9446 50.0474C100.527 50.3107 100.949 50.664 101.212 51.1075C101.476 51.537 101.607 52.0566 101.607 52.6663C101.607 53.2621 101.441 53.8302 101.109 54.3706C100.79 54.911 100.284 55.3544 99.5913 55.7009C98.9123 56.0473 98.0463 56.2205 96.9932 56.2205ZM96.9724 48.1976C96.0994 48.1976 95.3512 48.0383 94.7277 47.7196C94.118 47.387 93.6469 46.9436 93.3143 46.3893C92.9956 45.8212 92.8363 45.1908 92.8363 44.4979C92.8363 43.8051 92.9956 43.1816 93.3143 42.6273C93.6469 42.0731 94.118 41.6297 94.7277 41.2971C95.3512 40.9646 96.0994 40.7983 96.9724 40.7983C97.8454 40.7983 98.5867 40.9646 99.1964 41.2971C99.8199 41.6297 100.291 42.0731 100.61 42.6273C100.942 43.1816 101.109 43.8051 101.109 44.4979C101.109 45.1908 100.942 45.8212 100.61 46.3893C100.291 46.9436 99.8199 47.387 99.1964 47.7196C98.5867 48.0383 97.8454 48.1976 96.9724 48.1976ZM96.9724 46.5556C97.6514 46.5556 98.1918 46.3824 98.5936 46.036C98.9954 45.6757 99.1964 45.1631 99.1964 44.4979C99.1964 43.8467 98.9954 43.3479 98.5936 43.0015C98.1918 42.6412 97.6514 42.4611 96.9724 42.4611C96.3073 42.4611 95.7669 42.6412 95.3512 43.0015C94.9355 43.3479 94.7277 43.8467 94.7277 44.4979C94.7277 45.1631 94.9355 45.6757 95.3512 46.036C95.7669 46.3824 96.3073 46.5556 96.9724 46.5556ZM98.656 42.6689L98.1571 41.0477H102.46V42.4611L98.656 42.6689ZM108.599 51.6479C107.74 51.6479 106.978 51.5024 106.313 51.2114C105.648 50.9204 105.114 50.5116 104.712 49.9851C104.31 49.4585 104.068 48.8489 103.985 48.156H106.084C106.167 48.4747 106.313 48.7726 106.52 49.0498C106.728 49.3269 107.005 49.5486 107.352 49.7149C107.698 49.8812 108.114 49.9643 108.599 49.9643C109.056 49.9643 109.43 49.9019 109.721 49.7772C110.012 49.6387 110.227 49.4585 110.366 49.2368C110.504 49.0151 110.573 48.7796 110.573 48.5302C110.573 48.1422 110.476 47.8512 110.283 47.6572C110.102 47.4632 109.825 47.3108 109.451 47.1999C109.091 47.0752 108.654 46.9644 108.142 46.8674C107.698 46.7704 107.255 46.6526 106.811 46.5141C106.368 46.3755 105.966 46.1954 105.606 45.9737C105.246 45.752 104.955 45.4748 104.733 45.1423C104.511 44.8097 104.4 44.401 104.4 43.916C104.4 43.3202 104.56 42.7867 104.879 42.3156C105.197 41.8444 105.648 41.4772 106.23 41.214C106.811 40.9368 107.504 40.7983 108.308 40.7983C109.458 40.7983 110.386 41.0754 111.093 41.6297C111.814 42.1701 112.229 42.946 112.34 43.9575H110.324C110.269 43.5003 110.061 43.14 109.701 42.8767C109.354 42.6135 108.883 42.4818 108.287 42.4818C107.705 42.4818 107.255 42.5996 106.936 42.8352C106.631 43.0707 106.479 43.3756 106.479 43.7497C106.479 43.9991 106.569 44.2208 106.749 44.4148C106.943 44.5949 107.213 44.7543 107.56 44.8929C107.92 45.0176 108.343 45.1284 108.828 45.2254C109.52 45.3778 110.158 45.558 110.74 45.7658C111.322 45.9598 111.793 46.2577 112.153 46.6595C112.513 47.0614 112.694 47.6295 112.694 48.3639C112.707 49.0151 112.541 49.5902 112.195 50.089C111.862 50.574 111.391 50.955 110.781 51.2322C110.172 51.5093 109.444 51.6479 108.599 51.6479Z" fill="white"/>
<rect width="47.5077" height="47.5077" rx="23.7538" transform="matrix(1 0 0 -1 281.944 77.9062)" fill="#1A9BFC"/>
<g clip-path="url(#clip0_3858_15378)">
<path d="M305.697 43.2656V65.04" stroke="white" stroke-width="1.97949" stroke-linecap="round" stroke-linejoin="round"/>
<path d="M310.646 47.2266H303.223C302.304 47.2266 301.423 47.5915 300.774 48.2412C300.124 48.8908 299.759 49.7719 299.759 50.6907C299.759 51.6094 300.124 52.4905 300.774 53.1402C301.423 53.7898 302.304 54.1548 303.223 54.1548H308.172C309.091 54.1548 309.972 54.5197 310.621 55.1694C311.271 55.819 311.636 56.7001 311.636 57.6189C311.636 58.5376 311.271 59.4187 310.621 60.0684C309.972 60.718 309.091 61.083 308.172 61.083H299.759" stroke="white" stroke-width="1.97949" stroke-linecap="round" stroke-linejoin="round"/>
</g>
<path d="M37.5879 137.009V112.677H39.4724V137.009H37.5879ZM38.7518 134.93C37.3477 134.93 36.1099 134.681 35.0383 134.182C33.9667 133.665 33.1354 132.944 32.5442 132.02C31.9529 131.097 31.6481 130.016 31.6296 128.778H34.5672C34.5672 129.48 34.7242 130.127 35.0383 130.718C35.3709 131.291 35.842 131.752 36.4517 132.104C37.0798 132.436 37.8465 132.602 38.7518 132.602C39.5278 132.602 40.1929 132.482 40.7471 132.242C41.3199 131.983 41.754 131.632 42.0496 131.189C42.3637 130.727 42.5208 130.201 42.5208 129.609C42.5208 128.907 42.3637 128.335 42.0496 127.891C41.7356 127.448 41.3106 127.087 40.7749 126.81C40.2391 126.515 39.6294 126.256 38.9458 126.034C38.2622 125.813 37.5509 125.582 36.8119 125.342C35.2785 124.806 34.133 124.141 33.3755 123.346C32.6181 122.552 32.2393 121.508 32.2393 120.215C32.2393 119.143 32.4887 118.21 32.9876 117.416C33.5049 116.621 34.2346 116.002 35.1769 115.559C36.1191 115.097 37.2184 114.866 38.4747 114.866C39.7495 114.866 40.8488 115.097 41.7725 115.559C42.7148 116.021 43.4538 116.658 43.9895 117.471C44.5253 118.284 44.8025 119.236 44.8209 120.326H41.8834C41.8834 119.79 41.7448 119.291 41.4677 118.829C41.209 118.349 40.821 117.961 40.3037 117.665C39.7864 117.351 39.149 117.194 38.3916 117.194C37.7634 117.176 37.1999 117.277 36.7011 117.499C36.2022 117.721 35.805 118.044 35.5094 118.469C35.2323 118.875 35.0937 119.383 35.0937 119.993C35.0937 120.566 35.2138 121.037 35.454 121.406C35.7127 121.757 36.0729 122.062 36.5348 122.321C37.0152 122.58 37.5786 122.82 38.2253 123.041C38.8719 123.263 39.5924 123.513 40.3869 123.79C41.3291 124.104 42.179 124.492 42.9365 124.954C43.6939 125.397 44.2944 125.97 44.7378 126.672C45.1812 127.374 45.4029 128.288 45.4029 129.415C45.4029 130.358 45.1535 131.254 44.6547 132.104C44.1558 132.935 43.4168 133.618 42.4376 134.154C41.4584 134.672 40.2298 134.93 38.7518 134.93ZM54.7469 134.93C53.4906 134.93 52.419 134.681 51.5322 134.182C50.6454 133.683 49.9433 133.027 49.426 132.214C48.9272 131.383 48.6223 130.478 48.5115 129.498H51.0888C51.2551 130.478 51.6615 131.235 52.3082 131.771C52.9548 132.307 53.7862 132.575 54.8023 132.575C55.7076 132.575 56.5113 132.297 57.2133 131.743C57.9339 131.189 58.5066 130.339 58.9315 129.194C59.3749 128.048 59.6243 126.607 59.6798 124.87C59.6798 124.834 59.6798 124.797 59.6798 124.76C59.6798 124.723 59.6798 124.686 59.6798 124.649C59.3842 125.203 58.9685 125.711 58.4327 126.173C57.9154 126.616 57.3057 126.977 56.6036 127.254C55.9201 127.512 55.1441 127.642 54.2758 127.642C53.2042 127.642 52.1788 127.392 51.1996 126.893C50.2389 126.376 49.4537 125.646 48.8441 124.704C48.2528 123.762 47.9572 122.663 47.9572 121.406C47.9572 120.279 48.2251 119.217 48.7609 118.219C49.3152 117.222 50.1004 116.418 51.1165 115.808C52.1326 115.18 53.3243 114.866 54.6915 114.866C56.1325 114.866 57.3334 115.134 58.2941 115.67C59.2733 116.206 60.0585 116.917 60.6497 117.804C61.2409 118.69 61.6659 119.688 61.9245 120.797C62.2016 121.905 62.3402 123.032 62.3402 124.178C62.3402 126.302 62.0354 128.178 61.4257 129.803C60.8345 131.411 59.9754 132.667 58.8484 133.572C57.7214 134.478 56.3542 134.93 54.7469 134.93ZM54.8854 125.286C55.6984 125.286 56.4189 125.101 57.047 124.732C57.6752 124.362 58.174 123.873 58.5435 123.263C58.9315 122.653 59.1255 121.988 59.1255 121.268C59.1255 120.51 58.9315 119.827 58.5435 119.217C58.174 118.607 57.6752 118.136 57.047 117.804C56.4189 117.453 55.6984 117.277 54.8854 117.277C54.0725 117.277 53.352 117.453 52.7238 117.804C52.0957 118.155 51.5969 118.626 51.2274 119.217C50.8763 119.808 50.7008 120.501 50.7008 121.296C50.7008 122.09 50.8763 122.792 51.2274 123.402C51.5969 123.993 52.0957 124.455 52.7238 124.787C53.3705 125.12 54.091 125.286 54.8854 125.286ZM71.441 134.93C70.1847 134.93 69.0485 134.709 68.0324 134.265C67.0162 133.803 66.2033 133.12 65.5936 132.214C64.984 131.291 64.6606 130.136 64.6237 128.75H67.395C67.4134 129.452 67.5797 130.09 67.8938 130.662C68.2264 131.235 68.6882 131.697 69.2794 132.048C69.8706 132.381 70.5912 132.547 71.441 132.547C72.254 132.547 72.9375 132.39 73.4918 132.076C74.0645 131.762 74.4987 131.337 74.7943 130.801C75.0899 130.265 75.2377 129.665 75.2377 129C75.2377 128.168 75.0345 127.494 74.628 126.977C74.24 126.441 73.7043 126.044 73.0207 125.785C72.3371 125.508 71.5888 125.369 70.7759 125.369H69.3349V123.069H70.7759C71.9029 123.069 72.8082 122.801 73.4918 122.265C74.1754 121.73 74.5172 120.981 74.5172 120.021C74.5172 119.208 74.2493 118.543 73.7135 118.025C73.1962 117.508 72.4295 117.249 71.4133 117.249C70.4157 117.249 69.6212 117.545 69.03 118.136C68.4388 118.727 68.097 119.476 68.0047 120.381H65.2611C65.3165 119.291 65.6029 118.33 66.1202 117.499C66.6375 116.649 67.3488 116.002 68.2541 115.559C69.1778 115.097 70.2402 114.866 71.441 114.866C72.7158 114.866 73.7874 115.097 74.6557 115.559C75.5241 116.002 76.1799 116.603 76.6233 117.36C77.0667 118.118 77.2884 118.94 77.2884 119.827C77.2884 120.51 77.1591 121.148 76.9005 121.739C76.6603 122.312 76.3 122.81 75.8197 123.235C75.3578 123.66 74.7851 123.956 74.1015 124.122C74.859 124.27 75.5241 124.566 76.0968 125.009C76.688 125.434 77.1499 125.988 77.4824 126.672C77.815 127.355 77.9813 128.141 77.9813 129.027C77.9813 130.08 77.7319 131.06 77.233 131.965C76.7342 132.852 75.9952 133.572 75.016 134.127C74.0553 134.662 72.8636 134.93 71.441 134.93ZM79.728 138.006L81.3354 131.605H84.1067L81.5848 138.006H79.728ZM95.6168 134.598V130.635H85.8619V128.473L94.924 115.199H98.3604V128.224H101.132V130.635H98.3604V134.598H95.6168ZM88.8826 128.224H95.7554V117.97H95.7276L88.8826 128.224ZM109.979 134.93C108.723 134.93 107.587 134.709 106.571 134.265C105.554 133.803 104.741 133.12 104.132 132.214C103.522 131.291 103.199 130.136 103.162 128.75H105.933C105.952 129.452 106.118 130.09 106.432 130.662C106.764 131.235 107.226 131.697 107.818 132.048C108.409 132.381 109.129 132.547 109.979 132.547C110.792 132.547 111.476 132.39 112.03 132.076C112.603 131.762 113.037 131.337 113.332 130.801C113.628 130.265 113.776 129.665 113.776 129C113.776 128.168 113.573 127.494 113.166 126.977C112.778 126.441 112.242 126.044 111.559 125.785C110.875 125.508 110.127 125.369 109.314 125.369H107.873V123.069H109.314C110.441 123.069 111.346 122.801 112.03 122.265C112.714 121.73 113.055 120.981 113.055 120.021C113.055 119.208 112.787 118.543 112.252 118.025C111.734 117.508 110.968 117.249 109.951 117.249C108.954 117.249 108.159 117.545 107.568 118.136C106.977 118.727 106.635 119.476 106.543 120.381H103.799C103.855 119.291 104.141 118.33 104.658 117.499C105.176 116.649 105.887 116.002 106.792 115.559C107.716 115.097 108.778 114.866 109.979 114.866C111.254 114.866 112.326 115.097 113.194 115.559C114.062 116.002 114.718 116.603 115.161 117.36C115.605 118.118 115.827 118.94 115.827 119.827C115.827 120.51 115.697 121.148 115.439 121.739C115.198 122.312 114.838 122.81 114.358 123.235C113.896 123.66 113.323 123.956 112.64 124.122C113.397 124.27 114.062 124.566 114.635 125.009C115.226 125.434 115.688 125.988 116.021 126.672C116.353 127.355 116.519 128.141 116.519 129.027C116.519 130.08 116.27 131.06 115.771 131.965C115.272 132.852 114.533 133.572 113.554 134.127C112.593 134.662 111.402 134.93 109.979 134.93ZM126.414 134.93C125.12 134.93 123.957 134.699 122.922 134.237C121.906 133.757 121.093 133.092 120.483 132.242C119.874 131.392 119.569 130.404 119.569 129.277C119.569 128.482 119.716 127.753 120.012 127.087C120.326 126.404 120.751 125.813 121.287 125.314C121.841 124.815 122.488 124.455 123.227 124.233C122.229 123.845 121.453 123.272 120.899 122.515C120.345 121.757 120.068 120.926 120.068 120.021C120.068 119.078 120.317 118.219 120.816 117.443C121.315 116.667 122.035 116.049 122.977 115.587C123.92 115.106 125.065 114.866 126.414 114.866C127.762 114.866 128.908 115.106 129.85 115.587C130.811 116.049 131.541 116.667 132.039 117.443C132.538 118.219 132.788 119.078 132.788 120.021C132.788 120.926 132.501 121.767 131.929 122.543C131.374 123.3 130.608 123.864 129.628 124.233C130.367 124.455 131.005 124.815 131.541 125.314C132.095 125.813 132.52 126.404 132.815 127.087C133.129 127.753 133.287 128.482 133.287 129.277C133.287 130.404 132.982 131.392 132.372 132.242C131.762 133.092 130.94 133.757 129.906 134.237C128.871 134.699 127.707 134.93 126.414 134.93ZM126.414 132.547C127.799 132.547 128.825 132.233 129.49 131.605C130.173 130.958 130.515 130.117 130.515 129.083C130.515 127.919 130.146 127.032 129.407 126.422C128.668 125.813 127.67 125.508 126.414 125.508C125.157 125.508 124.16 125.813 123.421 126.422C122.682 127.032 122.312 127.919 122.312 129.083C122.312 130.117 122.654 130.958 123.338 131.605C124.04 132.233 125.065 132.547 126.414 132.547ZM126.414 123.319C127.522 123.319 128.4 123.032 129.046 122.459C129.693 121.887 130.016 121.157 130.016 120.27C130.016 119.254 129.693 118.487 129.046 117.97C128.418 117.453 127.541 117.194 126.414 117.194C125.324 117.194 124.455 117.453 123.809 117.97C123.181 118.487 122.867 119.254 122.867 120.27C122.867 121.157 123.181 121.887 123.809 122.459C124.437 123.032 125.305 123.319 126.414 123.319ZM137.734 134.736C137.198 134.736 136.754 134.57 136.403 134.237C136.071 133.886 135.905 133.471 135.905 132.99C135.905 132.491 136.071 132.076 136.403 131.743C136.754 131.392 137.198 131.217 137.734 131.217C138.251 131.217 138.676 131.392 139.008 131.743C139.341 132.076 139.507 132.491 139.507 132.99C139.507 133.471 139.341 133.886 139.008 134.237C138.676 134.57 138.251 134.736 137.734 134.736ZM143.32 134.598L150.886 117.582H140.632V115.199H153.713V117.222L146.23 134.598H143.32ZM162.706 134.93C161.412 134.93 160.248 134.699 159.214 134.237C158.198 133.757 157.385 133.092 156.775 132.242C156.165 131.392 155.861 130.404 155.861 129.277C155.861 128.482 156.008 127.753 156.304 127.087C156.618 126.404 157.043 125.813 157.579 125.314C158.133 124.815 158.78 124.455 159.519 124.233C158.521 123.845 157.745 123.272 157.191 122.515C156.637 121.757 156.359 120.926 156.359 120.021C156.359 119.078 156.609 118.219 157.108 117.443C157.606 116.667 158.327 116.049 159.269 115.587C160.211 115.106 161.357 114.866 162.706 114.866C164.054 114.866 165.2 115.106 166.142 115.587C167.103 116.049 167.833 116.667 168.331 117.443C168.83 118.219 169.08 119.078 169.08 120.021C169.08 120.926 168.793 121.767 168.22 122.543C167.666 123.3 166.9 123.864 165.92 124.233C166.659 124.455 167.297 124.815 167.833 125.314C168.387 125.813 168.812 126.404 169.107 127.087C169.421 127.753 169.578 128.482 169.578 129.277C169.578 130.404 169.274 131.392 168.664 132.242C168.054 133.092 167.232 133.757 166.197 134.237C165.163 134.699 163.999 134.93 162.706 134.93ZM162.706 132.547C164.091 132.547 165.117 132.233 165.782 131.605C166.465 130.958 166.807 130.117 166.807 129.083C166.807 127.919 166.438 127.032 165.699 126.422C164.96 125.813 163.962 125.508 162.706 125.508C161.449 125.508 160.452 125.813 159.713 126.422C158.974 127.032 158.604 127.919 158.604 129.083C158.604 130.117 158.946 130.958 159.63 131.605C160.332 132.233 161.357 132.547 162.706 132.547ZM162.706 123.319C163.814 123.319 164.692 123.032 165.338 122.459C165.985 121.887 166.308 121.157 166.308 120.27C166.308 119.254 165.985 118.487 165.338 117.97C164.71 117.453 163.833 117.194 162.706 117.194C161.616 117.194 160.747 117.453 160.101 117.97C159.472 118.487 159.158 119.254 159.158 120.27C159.158 121.157 159.472 121.887 160.101 122.459C160.729 123.032 161.597 123.319 162.706 123.319Z" fill="white"/>
<path d="M31.7365 159.598V148.513H33.2884L37.2157 156.256L41.143 148.513H42.7108V159.598H41.3806V150.888L37.7225 158.046H36.7248L33.0667 150.92V159.598H31.7365ZM48.5665 159.788C47.8275 159.788 47.1624 159.619 46.5712 159.281C45.98 158.933 45.5102 158.447 45.1618 157.824C44.8239 157.201 44.655 156.467 44.655 155.623C44.655 154.778 44.8292 154.045 45.1776 153.422C45.526 152.799 45.9958 152.318 46.587 151.981C47.1888 151.632 47.8592 151.458 48.5982 151.458C49.3477 151.458 50.0181 151.632 50.6093 151.981C51.2005 152.318 51.665 152.799 52.0029 153.422C52.3407 154.045 52.5096 154.778 52.5096 155.623C52.5096 156.467 52.3354 157.201 51.987 157.824C51.6492 158.447 51.1794 158.933 50.5777 159.281C49.9864 159.619 49.3161 159.788 48.5665 159.788ZM48.5665 158.648C49.031 158.648 49.4586 158.537 49.8492 158.315C50.2398 158.083 50.5513 157.745 50.7835 157.301C51.0263 156.847 51.1477 156.288 51.1477 155.623C51.1477 154.947 51.0316 154.388 50.7994 153.944C50.5671 153.49 50.2557 153.152 49.865 152.931C49.4744 152.709 49.0521 152.598 48.5982 152.598C48.1548 152.598 47.7325 152.709 47.3313 152.931C46.9407 153.152 46.624 153.49 46.3811 153.944C46.1383 154.388 46.0169 154.947 46.0169 155.623C46.0169 156.288 46.1383 156.847 46.3811 157.301C46.624 157.745 46.9354 158.083 47.3155 158.315C47.7061 158.537 48.1231 158.648 48.5665 158.648ZM54.3747 159.598V151.648H55.5782L55.6574 153.042C55.9108 152.545 56.2697 152.16 56.7342 151.886C57.2093 151.601 57.7477 151.458 58.3495 151.458C58.9724 151.458 59.5108 151.579 59.9648 151.822C60.4187 152.065 60.7724 152.44 61.0258 152.947C61.2791 153.453 61.4058 154.092 61.4058 154.863V159.598H60.0756V155.005C60.0756 154.203 59.9014 153.601 59.553 153.2C59.2046 152.799 58.7032 152.598 58.0486 152.598C57.6052 152.598 57.204 152.709 56.8451 152.931C56.4967 153.142 56.2169 153.453 56.0058 153.865C55.8052 154.266 55.7049 154.768 55.7049 155.369V159.598H54.3747ZM66.588 159.598C66.1129 159.598 65.7012 159.524 65.3528 159.376C65.0044 159.228 64.7352 158.98 64.5452 158.632C64.3657 158.273 64.2759 157.792 64.2759 157.191V152.772H62.8982V151.648H64.2759L64.4501 149.716H65.6062V151.648H67.934V152.772H65.6062V157.191C65.6062 157.687 65.7065 158.025 65.907 158.204C66.1076 158.373 66.4613 158.457 66.9681 158.457H67.8232V159.598H66.588ZM69.6384 159.598V148.196H70.9686V152.994C71.2431 152.508 71.6179 152.134 72.0929 151.87C72.568 151.595 73.0959 151.458 73.6765 151.458C74.2889 151.458 74.8167 151.579 75.2601 151.822C75.7141 152.065 76.0625 152.44 76.3053 152.947C76.5587 153.453 76.6854 154.097 76.6854 154.879V159.598H75.371V155.021C75.371 154.219 75.2021 153.617 74.8642 153.216C74.5264 152.804 74.0355 152.598 73.3915 152.598C72.9375 152.598 72.5258 152.709 72.1563 152.931C71.7973 153.142 71.507 153.459 71.2853 153.881C71.0742 154.293 70.9686 154.799 70.9686 155.401V159.598H69.6384ZM78.7317 159.598V148.196H80.0619V159.598H78.7317ZM83.1286 163.082L85.0764 158.711H84.6172L81.4975 151.648H82.9386L85.5356 157.713L88.2753 151.648H89.653L84.5221 163.082H83.1286ZM95.2635 159.598V151.648H96.467L96.5778 153.168C96.7573 152.799 96.9843 152.487 97.2588 152.234C97.5438 151.981 97.8817 151.791 98.2723 151.664C98.6629 151.527 99.1063 151.458 99.6025 151.458V152.852H99.1433C98.8054 152.852 98.4834 152.899 98.1773 152.994C97.8711 153.079 97.5966 153.221 97.3538 153.422C97.1215 153.612 96.9368 153.881 96.7995 154.229C96.6623 154.567 96.5937 154.995 96.5937 155.512V159.598H95.2635ZM104.331 159.788C103.592 159.788 102.932 159.613 102.351 159.265C101.771 158.917 101.311 158.431 100.974 157.808C100.646 157.185 100.483 156.457 100.483 155.623C100.483 154.778 100.646 154.045 100.974 153.422C101.301 152.799 101.755 152.318 102.336 151.981C102.927 151.632 103.602 151.458 104.363 151.458C105.144 151.458 105.809 151.632 106.358 151.981C106.907 152.318 107.324 152.772 107.609 153.342C107.905 153.902 108.052 154.52 108.052 155.195C108.052 155.301 108.052 155.412 108.052 155.528C108.052 155.644 108.047 155.776 108.036 155.924H101.48V154.894H106.738C106.706 154.166 106.463 153.601 106.009 153.2C105.566 152.788 105.007 152.582 104.331 152.582C103.887 152.582 103.47 152.683 103.08 152.883C102.689 153.084 102.372 153.385 102.13 153.786C101.897 154.177 101.781 154.667 101.781 155.259V155.702C101.781 156.357 101.903 156.906 102.146 157.349C102.388 157.782 102.7 158.109 103.08 158.331C103.47 158.552 103.887 158.663 104.331 158.663C104.89 158.663 105.35 158.542 105.709 158.299C106.078 158.046 106.347 157.703 106.516 157.27H107.831C107.693 157.755 107.466 158.188 107.15 158.568C106.833 158.938 106.437 159.233 105.962 159.455C105.497 159.677 104.954 159.788 104.331 159.788ZM111.803 159.598L108.794 151.648H110.187L112.579 158.315L115.002 151.648H116.363L113.339 159.598H111.803ZM120.955 159.788C120.216 159.788 119.557 159.613 118.976 159.265C118.395 158.917 117.936 158.431 117.598 157.808C117.271 157.185 117.107 156.457 117.107 155.623C117.107 154.778 117.271 154.045 117.598 153.422C117.926 152.799 118.38 152.318 118.96 151.981C119.551 151.632 120.227 151.458 120.987 151.458C121.768 151.458 122.433 151.632 122.982 151.981C123.531 152.318 123.948 152.772 124.234 153.342C124.529 153.902 124.677 154.52 124.677 155.195C124.677 155.301 124.677 155.412 124.677 155.528C124.677 155.644 124.672 155.776 124.661 155.924H118.105V154.894H123.363C123.331 154.166 123.088 153.601 122.634 153.2C122.191 152.788 121.631 152.582 120.955 152.582C120.512 152.582 120.095 152.683 119.704 152.883C119.314 153.084 118.997 153.385 118.754 153.786C118.522 154.177 118.406 154.667 118.406 155.259V155.702C118.406 156.357 118.527 156.906 118.77 157.349C119.013 157.782 119.324 158.109 119.704 158.331C120.095 158.552 120.512 158.663 120.955 158.663C121.515 158.663 121.974 158.542 122.333 158.299C122.703 158.046 122.972 157.703 123.141 157.27H124.455C124.318 157.755 124.091 158.188 123.774 158.568C123.458 158.938 123.062 159.233 122.587 159.455C122.122 159.677 121.578 159.788 120.955 159.788ZM126.44 159.598V151.648H127.644L127.723 153.042C127.976 152.545 128.335 152.16 128.8 151.886C129.275 151.601 129.813 151.458 130.415 151.458C131.038 151.458 131.576 151.579 132.03 151.822C132.484 152.065 132.838 152.44 133.091 152.947C133.345 153.453 133.472 154.092 133.472 154.863V159.598H132.141V155.005C132.141 154.203 131.967 153.601 131.619 153.2C131.27 152.799 130.769 152.598 130.114 152.598C129.671 152.598 129.27 152.709 128.911 152.931C128.562 153.142 128.283 153.453 128.071 153.865C127.871 154.266 127.771 154.768 127.771 155.369V159.598H126.44ZM138.416 159.788C137.804 159.788 137.265 159.666 136.801 159.423C136.347 159.181 135.993 158.806 135.74 158.299C135.497 157.792 135.376 157.154 135.376 156.383V151.648H136.706V156.24C136.706 157.043 136.88 157.645 137.228 158.046C137.577 158.447 138.073 158.648 138.717 158.648C139.16 158.648 139.562 158.542 139.921 158.331C140.28 158.109 140.559 157.792 140.76 157.381C140.971 156.969 141.077 156.467 141.077 155.876V151.648H142.407V159.598H141.203L141.124 158.204C140.871 158.7 140.506 159.091 140.031 159.376C139.556 159.65 139.018 159.788 138.416 159.788ZM148.112 159.788C147.373 159.788 146.713 159.613 146.132 159.265C145.551 158.917 145.092 158.431 144.754 157.808C144.427 157.185 144.263 156.457 144.263 155.623C144.263 154.778 144.427 154.045 144.754 153.422C145.082 152.799 145.536 152.318 146.116 151.981C146.707 151.632 147.383 151.458 148.143 151.458C148.924 151.458 149.59 151.632 150.139 151.981C150.688 152.318 151.105 152.772 151.39 153.342C151.685 153.902 151.833 154.52 151.833 155.195C151.833 155.301 151.833 155.412 151.833 155.528C151.833 155.644 151.828 155.776 151.817 155.924H145.261V154.894H150.519C150.487 154.166 150.244 153.601 149.79 153.2C149.347 152.788 148.787 152.582 148.112 152.582C147.668 152.582 147.251 152.683 146.861 152.883C146.47 153.084 146.153 153.385 145.91 153.786C145.678 154.177 145.562 154.667 145.562 155.259V155.702C145.562 156.357 145.683 156.906 145.926 157.349C146.169 157.782 146.48 158.109 146.861 158.331C147.251 158.552 147.668 158.663 148.112 158.663C148.671 158.663 149.13 158.542 149.489 158.299C149.859 158.046 150.128 157.703 150.297 157.27H151.611C151.474 157.755 151.247 158.188 150.93 158.568C150.614 158.938 150.218 159.233 149.743 159.455C149.278 159.677 148.734 159.788 148.112 159.788Z" fill="#9FB8EF"/>
<defs>
<clipPath id="clip0_3858_15378">
<rect width="23.7538" height="23.7538" fill="white" transform="translate(293.821 42.2773)"/>
</clipPath>
</defs>
</svg>
