<svg width="416" height="219" viewBox="0 0 416 219" fill="none" xmlns="http://www.w3.org/2000/svg">
<rect y="0.246094" width="415.068" height="218.047" rx="22.9319" fill="white"/>
<path d="M45.0475 61.6445V57.7094H35.3611V55.563L44.3596 42.3817H47.7719V55.3153H50.5237V57.7094H47.7719V61.6445H45.0475ZM38.3606 55.3153H45.1851V45.1611L38.3606 55.3153ZM59.3091 61.9748C58.0616 61.9748 56.9334 61.7546 55.9244 61.3143C54.9154 60.8557 54.1082 60.1769 53.5028 59.278C52.9157 58.3607 52.6038 57.2141 52.5671 55.8382H55.2915C55.3098 56.5353 55.4749 57.1682 55.7868 57.7369C56.117 58.3056 56.5756 58.7643 57.1627 59.1128C57.7498 59.4431 58.4652 59.6082 59.3091 59.6082C60.1163 59.6082 60.7951 59.4522 61.3455 59.1404C61.9142 58.8285 62.3453 58.4065 62.6388 57.8745C62.9324 57.3425 63.0791 56.7463 63.0791 56.0858C63.0791 55.2603 62.8773 54.5907 62.4737 54.077C62.0885 53.545 61.5565 53.1505 60.8777 52.8937C60.1989 52.6185 59.4559 52.4809 58.6487 52.4809H57.2177V50.1969H58.6487C59.7861 50.1969 60.685 49.9309 61.3455 49.3989C62.0243 48.8669 62.3637 48.1239 62.3637 47.1699C62.3637 46.3627 62.0977 45.7022 61.5656 45.1886C61.052 44.6749 60.2906 44.4181 59.2816 44.4181C58.291 44.4181 57.5021 44.7116 56.915 45.2986C56.328 45.8857 55.9978 46.6287 55.9244 47.5276H53.1725C53.2276 46.4452 53.5119 45.4913 54.0256 44.6657C54.5393 43.8218 55.2456 43.1797 56.1445 42.7394C57.0618 42.2808 58.1167 42.0515 59.3091 42.0515C60.575 42.0515 61.639 42.2808 62.5013 42.7394C63.3635 43.1797 64.0148 43.776 64.4551 44.5281C64.8953 45.2803 65.1155 46.0967 65.1155 46.9773C65.1155 47.656 64.9871 48.289 64.7302 48.876C64.4917 49.4447 64.134 49.9401 63.657 50.362C63.1984 50.784 62.6297 51.0775 61.9509 51.2426C62.7031 51.3894 63.3635 51.6829 63.9322 52.1232C64.5193 52.5451 64.9779 53.0955 65.3081 53.7743C65.6383 54.4531 65.8035 55.2328 65.8035 56.1133C65.8035 57.159 65.5558 58.1314 65.0605 59.0303C64.5835 59.9109 63.8588 60.6264 62.8865 61.1767C61.9142 61.7087 60.7217 61.9748 59.3091 61.9748ZM67.538 65.0293L69.134 58.6726H71.8859L69.3817 65.0293H67.538ZM74.0691 61.6445V59.6632C75.3349 58.6726 76.5365 57.6727 77.674 56.6637C78.8297 55.6547 79.8571 54.6549 80.756 53.6642C81.6549 52.6552 82.3612 51.6737 82.8749 50.7198C83.3886 49.7474 83.6454 48.821 83.6454 47.9404C83.6454 47.3167 83.5354 46.7388 83.3152 46.2067C83.0951 45.6747 82.7465 45.2436 82.2695 44.9134C81.8109 44.5648 81.178 44.3905 80.3708 44.3905C79.5819 44.3905 78.9215 44.5648 78.3894 44.9134C77.8758 45.262 77.4813 45.7298 77.2061 46.3168C76.9493 46.8855 76.8209 47.5185 76.8209 48.2156H74.1791C74.1975 46.8947 74.4818 45.7756 75.0322 44.8584C75.5826 43.9411 76.3256 43.2439 77.2612 42.767C78.1968 42.29 79.2517 42.0515 80.4258 42.0515C81.6366 42.0515 82.6823 42.2808 83.5629 42.7394C84.4618 43.1797 85.1589 43.831 85.6543 44.6932C86.1496 45.5371 86.3973 46.5737 86.3973 47.8028C86.3973 48.6834 86.223 49.564 85.8744 50.4446C85.5259 51.3068 85.0489 52.1507 84.4435 52.9763C83.8564 53.8018 83.196 54.5998 82.4621 55.3704C81.7467 56.1225 81.0037 56.838 80.2332 57.5168C79.4626 58.1956 78.7288 58.8101 78.0317 59.3605H87.0027V61.6445H74.0691ZM98.3374 61.6445V57.7094H88.651V55.563L97.6495 42.3817H101.062V55.3153H103.814V57.7094H101.062V61.6445H98.3374ZM91.6505 55.3153H98.475V45.1611L91.6505 55.3153ZM113.507 61.9748C112.095 61.9748 110.902 61.7087 109.93 61.1767C108.957 60.6447 108.178 59.9384 107.591 59.0578C107.022 58.1772 106.6 57.1866 106.325 56.0858C106.05 54.9851 105.912 53.866 105.912 52.7286C105.912 50.6005 106.206 48.7384 106.793 47.1424C107.398 45.5463 108.26 44.2988 109.379 43.3999C110.517 42.5009 111.874 42.0515 113.452 42.0515C114.7 42.0515 115.764 42.2991 116.644 42.7945C117.543 43.2898 118.249 43.9411 118.763 44.7483C119.277 45.5555 119.579 46.4544 119.671 47.4451H117.112C116.947 46.4728 116.543 45.7206 115.901 45.1886C115.259 44.6566 114.434 44.3905 113.425 44.3905C112.526 44.3905 111.718 44.6749 111.003 45.2436C110.287 45.794 109.719 46.6379 109.297 47.7753C108.875 48.8944 108.636 50.3345 108.581 52.0957C108.581 52.114 108.581 52.1415 108.581 52.1782C108.581 52.1966 108.581 52.2241 108.581 52.2608C108.875 51.7104 109.278 51.2151 109.792 50.7748C110.306 50.3162 110.911 49.9584 111.608 49.7016C112.324 49.4264 113.094 49.2888 113.92 49.2888C115.002 49.2888 116.02 49.5456 116.974 50.0593C117.928 50.5546 118.699 51.2701 119.286 52.2057C119.891 53.1414 120.194 54.2329 120.194 55.4804C120.194 56.5995 119.919 57.6544 119.369 58.645C118.836 59.6357 118.066 60.4429 117.057 61.0666C116.066 61.672 114.883 61.9748 113.507 61.9748ZM113.342 59.5807C114.131 59.5807 114.837 59.4064 115.461 59.0578C116.103 58.7092 116.598 58.2414 116.947 57.6544C117.295 57.049 117.47 56.361 117.47 55.5905C117.47 54.8016 117.295 54.1137 116.947 53.5266C116.598 52.9212 116.103 52.4534 115.461 52.1232C114.837 51.793 114.122 51.6279 113.314 51.6279C112.526 51.6279 111.81 51.8113 111.168 52.1782C110.544 52.5451 110.049 53.0313 109.682 53.6367C109.315 54.2238 109.132 54.8842 109.132 55.618C109.132 56.3702 109.315 57.049 109.682 57.6544C110.049 58.2414 110.553 58.7092 111.196 59.0578C111.838 59.4064 112.553 59.5807 113.342 59.5807Z" fill="#11142D"/>
<path d="M38.9476 93.2305V88.3506L34.7649 80.3886H36.5077L39.9933 87.3966H39.4613L42.9286 80.3886H44.6531L40.4887 88.3506V93.2305H38.9476ZM48.7843 93.4506C47.9159 93.4506 47.1454 93.2549 46.4728 92.8636C45.8001 92.46 45.2681 91.8974 44.8767 91.1758C44.4976 90.4542 44.308 89.6103 44.308 88.6441C44.308 87.6657 44.4976 86.8218 44.8767 86.1124C45.2558 85.3908 45.7817 84.8343 46.4544 84.4429C47.1393 84.0393 47.9282 83.8375 48.821 83.8375C49.7138 83.8375 50.4782 84.0393 51.1142 84.4429C51.7502 84.8343 52.2333 85.3541 52.5635 86.0023C52.9059 86.6505 53.0772 87.3599 53.0772 88.1304C53.0772 88.2527 53.0772 88.3872 53.0772 88.534C53.0772 88.6685 53.071 88.8214 53.0588 88.9926H45.4638V87.8002H51.5545C51.5178 86.9563 51.2365 86.302 50.7106 85.8372C50.1969 85.3725 49.5548 85.1401 48.7843 85.1401C48.2584 85.1401 47.7692 85.2563 47.3167 85.4886C46.8641 85.721 46.4972 86.0635 46.2159 86.516C45.9469 86.9685 45.8123 87.5372 45.8123 88.2221V88.7358C45.8123 89.4941 45.953 90.1301 46.2343 90.6437C46.5156 91.1452 46.8825 91.5243 47.335 91.7812C47.7875 92.0258 48.2706 92.1481 48.7843 92.1481C49.4203 92.1481 49.9462 92.0074 50.362 91.7261C50.7901 91.4326 51.102 91.0351 51.2976 90.5337H52.8203C52.6613 91.0963 52.3984 91.5977 52.0315 92.038C51.6646 92.4661 51.2059 92.8085 50.6555 93.0654C50.1174 93.3222 49.4937 93.4506 48.7843 93.4506ZM58.165 93.4506C57.4068 93.4506 56.7769 93.3222 56.2754 93.0654C55.7862 92.8085 55.4193 92.4661 55.1747 92.038C54.9301 91.5977 54.8078 91.1268 54.8078 90.6254C54.8078 89.9894 54.9668 89.4574 55.2848 89.0293C55.615 88.6013 56.0736 88.2772 56.6607 88.057C57.26 87.8246 57.9571 87.7085 58.7521 87.7085H61.2104C61.2104 87.1336 61.1187 86.6566 60.9352 86.2775C60.764 85.8984 60.5072 85.6171 60.1647 85.4336C59.8223 85.2379 59.4064 85.1401 58.9172 85.1401C58.3301 85.1401 57.8165 85.2868 57.3762 85.5804C56.9481 85.8739 56.6852 86.3081 56.5873 86.8829H55.0096C55.083 86.2225 55.3031 85.666 55.67 85.2135C56.0492 84.7609 56.5262 84.4185 57.101 84.1861C57.6758 83.9537 58.2812 83.8375 58.9172 83.8375C59.7611 83.8375 60.4643 83.9965 61.0269 84.3145C61.6018 84.6203 62.0298 85.0545 62.3111 85.6171C62.6047 86.1674 62.7514 86.8156 62.7514 87.5617V93.2305H61.3755L61.2838 91.5977C61.1615 91.8546 61.0025 92.0992 60.8068 92.3315C60.6233 92.5517 60.4032 92.7474 60.1464 92.9186C59.9018 93.0776 59.6143 93.206 59.2841 93.3039C58.9539 93.4017 58.5809 93.4506 58.165 93.4506ZM58.4035 92.1481C58.8438 92.1481 59.2352 92.0625 59.5776 91.8912C59.9201 91.7078 60.2136 91.4632 60.4582 91.1574C60.7151 90.8517 60.9046 90.5092 61.0269 90.1301C61.1492 89.7387 61.2104 89.3412 61.2104 88.9376V88.9009H58.8805C58.2935 88.9009 57.8165 88.9743 57.4496 89.1211C57.0827 89.2556 56.8197 89.4452 56.6607 89.6898C56.5017 89.9344 56.4222 90.2218 56.4222 90.552C56.4222 90.87 56.4956 91.1513 56.6424 91.3959C56.8014 91.6405 57.0276 91.8301 57.3211 91.9646C57.6147 92.0869 57.9755 92.1481 58.4035 92.1481ZM65.0991 93.2305V84.0577H66.4933L66.6218 85.8189C66.8175 85.3908 67.0743 85.03 67.3923 84.7365C67.7225 84.4429 68.1139 84.2228 68.5664 84.076C69.0189 83.917 69.5326 83.8375 70.1074 83.8375V85.452H69.6121C69.2085 85.452 68.8232 85.507 68.4563 85.6171C68.1016 85.7149 67.7836 85.88 67.5024 86.1124C67.2333 86.3325 67.0193 86.6444 66.8603 87.048C66.7135 87.4516 66.6401 87.9469 66.6401 88.534V93.2305H65.0991ZM71.8353 93.2305V80.0217H73.3764V93.2305H71.8353ZM76.9291 97.2665L79.1856 92.2031H78.6536L75.0212 84.0577H76.6906L79.7176 91.0657L82.8914 84.0577H84.4875L78.5435 97.2665H76.9291ZM94.4727 93.4506C93.7389 93.4506 93.0846 93.3283 92.5098 93.0837C91.9349 92.8269 91.4763 92.4661 91.1339 92.0013C90.7914 91.5366 90.5774 90.9923 90.4918 90.3686H92.0695C92.1429 90.6988 92.2774 90.9984 92.4731 91.2675C92.6688 91.5366 92.9378 91.7506 93.2803 91.9096C93.6227 92.0686 94.0263 92.1481 94.4911 92.1481C94.9314 92.1481 95.2861 92.0869 95.5551 91.9646C95.8364 91.8301 96.0443 91.6589 96.1789 91.451C96.3256 91.2308 96.399 90.9923 96.399 90.7355C96.399 90.3563 96.3073 90.075 96.1238 89.8916C95.9526 89.6959 95.6958 89.543 95.3533 89.4329C95.0109 89.3106 94.6012 89.2067 94.1242 89.1211C93.7328 89.0477 93.3414 88.9498 92.9501 88.8275C92.5709 88.7052 92.2224 88.5462 91.9044 88.3506C91.5986 88.1549 91.354 87.9103 91.1705 87.6167C90.9871 87.3232 90.8954 86.9624 90.8954 86.5343C90.8954 86.0084 91.0299 85.5437 91.299 85.1401C91.5803 84.7365 91.9655 84.4185 92.4547 84.1861C92.9562 83.9537 93.5494 83.8375 94.2343 83.8375C95.2127 83.8375 96.0077 84.076 96.6192 84.553C97.2307 85.03 97.5854 85.7149 97.6832 86.6077H96.1605C96.1116 86.1552 95.9159 85.8005 95.5735 85.5437C95.2433 85.2746 94.7907 85.1401 94.2159 85.1401C93.6411 85.1401 93.2008 85.2563 92.895 85.4886C92.6015 85.721 92.4547 86.0268 92.4547 86.4059C92.4547 86.6383 92.5403 86.8462 92.7116 87.0297C92.8828 87.2131 93.1274 87.3721 93.4454 87.5067C93.7756 87.629 94.1731 87.739 94.6379 87.8369C95.2249 87.9469 95.7692 88.0937 96.2706 88.2772C96.7721 88.4606 97.1818 88.7297 97.4998 89.0844C97.8178 89.4391 97.9767 89.9466 97.9767 90.6071C97.989 91.1697 97.8483 91.665 97.5548 92.093C97.2613 92.5211 96.8516 92.8574 96.3256 93.102C95.812 93.3344 95.1943 93.4506 94.4727 93.4506ZM103.205 93.4506C102.447 93.4506 101.817 93.3222 101.315 93.0654C100.826 92.8085 100.459 92.4661 100.214 92.038C99.9699 91.5977 99.8476 91.1268 99.8476 90.6254C99.8476 89.9894 100.007 89.4574 100.325 89.0293C100.655 88.6013 101.113 88.2772 101.7 88.057C102.3 87.8246 102.997 87.7085 103.792 87.7085H106.25C106.25 87.1336 106.158 86.6566 105.975 86.2775C105.804 85.8984 105.547 85.6171 105.204 85.4336C104.862 85.2379 104.446 85.1401 103.957 85.1401C103.37 85.1401 102.856 85.2868 102.416 85.5804C101.988 85.8739 101.725 86.3081 101.627 86.8829H100.049C100.123 86.2225 100.343 85.666 100.71 85.2135C101.089 84.7609 101.566 84.4185 102.141 84.1861C102.716 83.9537 103.321 83.8375 103.957 83.8375C104.801 83.8375 105.504 83.9965 106.067 84.3145C106.642 84.6203 107.07 85.0545 107.351 85.6171C107.644 86.1674 107.791 86.8156 107.791 87.5617V93.2305H106.415L106.324 91.5977C106.201 91.8546 106.042 92.0992 105.847 92.3315C105.663 92.5517 105.443 92.7474 105.186 92.9186C104.942 93.0776 104.654 93.206 104.324 93.3039C103.994 93.4017 103.621 93.4506 103.205 93.4506ZM103.443 92.1481C103.884 92.1481 104.275 92.0625 104.617 91.8912C104.96 91.7078 105.253 91.4632 105.498 91.1574C105.755 90.8517 105.944 90.5092 106.067 90.1301C106.189 89.7387 106.25 89.3412 106.25 88.9376V88.9009H103.92C103.333 88.9009 102.856 88.9743 102.489 89.1211C102.122 89.2556 101.859 89.4452 101.7 89.6898C101.541 89.9344 101.462 90.2218 101.462 90.552C101.462 90.87 101.535 91.1513 101.682 91.3959C101.841 91.6405 102.067 91.8301 102.361 91.9646C102.654 92.0869 103.015 92.1481 103.443 92.1481ZM110.139 93.2305V80.0217H111.68V93.2305H110.139ZM118.315 93.4506C117.446 93.4506 116.676 93.2549 116.003 92.8636C115.33 92.46 114.798 91.8974 114.407 91.1758C114.028 90.4542 113.838 89.6103 113.838 88.6441C113.838 87.6657 114.028 86.8218 114.407 86.1124C114.786 85.3908 115.312 84.8343 115.985 84.4429C116.67 84.0393 117.459 83.8375 118.351 83.8375C119.244 83.8375 120.009 84.0393 120.645 84.4429C121.281 84.8343 121.764 85.3541 122.094 86.0023C122.436 86.6505 122.608 87.3599 122.608 88.1304C122.608 88.2527 122.608 88.3872 122.608 88.534C122.608 88.6685 122.601 88.8214 122.589 88.9926H114.994V87.8002H121.085C121.048 86.9563 120.767 86.302 120.241 85.8372C119.727 85.3725 119.085 85.1401 118.315 85.1401C117.789 85.1401 117.3 85.2563 116.847 85.4886C116.394 85.721 116.028 86.0635 115.746 86.516C115.477 86.9685 115.343 87.5372 115.343 88.2221V88.7358C115.343 89.4941 115.483 90.1301 115.765 90.6437C116.046 91.1452 116.413 91.5243 116.865 91.7812C117.318 92.0258 117.801 92.1481 118.315 92.1481C118.951 92.1481 119.477 92.0074 119.892 91.7261C120.32 91.4326 120.632 91.0351 120.828 90.5337H122.351C122.192 91.0963 121.929 91.5977 121.562 92.038C121.195 92.4661 120.736 92.8085 120.186 93.0654C119.648 93.3222 119.024 93.4506 118.315 93.4506ZM128.154 93.4506C127.42 93.4506 126.766 93.3283 126.191 93.0837C125.616 92.8269 125.158 92.4661 124.815 92.0013C124.473 91.5366 124.259 90.9923 124.173 90.3686H125.751C125.824 90.6988 125.959 90.9984 126.154 91.2675C126.35 91.5366 126.619 91.7506 126.962 91.9096C127.304 92.0686 127.708 92.1481 128.172 92.1481C128.613 92.1481 128.967 92.0869 129.236 91.9646C129.518 91.8301 129.726 91.6589 129.86 91.451C130.007 91.2308 130.08 90.9923 130.08 90.7355C130.08 90.3563 129.989 90.075 129.805 89.8916C129.634 89.6959 129.377 89.543 129.035 89.4329C128.692 89.3106 128.282 89.2067 127.805 89.1211C127.414 89.0477 127.023 88.9498 126.631 88.8275C126.252 88.7052 125.904 88.5462 125.586 88.3506C125.28 88.1549 125.035 87.9103 124.852 87.6167C124.668 87.3232 124.577 86.9624 124.577 86.5343C124.577 86.0084 124.711 85.5437 124.98 85.1401C125.262 84.7365 125.647 84.4185 126.136 84.1861C126.637 83.9537 127.231 83.8375 127.916 83.8375C128.894 83.8375 129.689 84.076 130.3 84.553C130.912 85.03 131.267 85.7149 131.365 86.6077H129.842C129.793 86.1552 129.597 85.8005 129.255 85.5437C128.925 85.2746 128.472 85.1401 127.897 85.1401C127.322 85.1401 126.882 85.2563 126.576 85.4886C126.283 85.721 126.136 86.0268 126.136 86.4059C126.136 86.6383 126.222 86.8462 126.393 87.0297C126.564 87.2131 126.809 87.3721 127.127 87.5067C127.457 87.629 127.854 87.739 128.319 87.8369C128.906 87.9469 129.45 88.0937 129.952 88.2772C130.453 88.4606 130.863 88.7297 131.181 89.0844C131.499 89.4391 131.658 89.9466 131.658 90.6071C131.67 91.1697 131.53 91.665 131.236 92.093C130.943 92.5211 130.533 92.8574 130.007 93.102C129.493 93.3344 128.876 93.4506 128.154 93.4506Z" fill="#777E89"/>
<circle cx="40.1309" cy="139.893" r="5.73298" fill="#1A9BFC"/>
<path d="M56.1924 145.895V144.812C57.073 144.127 57.8985 143.436 58.669 142.739C59.4518 142.042 60.1489 141.351 60.7604 140.666C61.372 139.969 61.8489 139.29 62.1914 138.63C62.5461 137.969 62.7234 137.333 62.7234 136.722C62.7234 136.269 62.6439 135.853 62.4849 135.474C62.3259 135.083 62.0752 134.765 61.7327 134.52C61.3903 134.276 60.9255 134.153 60.3385 134.153C59.7637 134.153 59.2867 134.282 58.9075 134.539C58.5284 134.783 58.241 135.113 58.0453 135.529C57.8618 135.933 57.7701 136.379 57.7701 136.869H56.2841C56.2963 136.025 56.4737 135.303 56.8161 134.704C57.1708 134.092 57.6539 133.627 58.2654 133.309C58.877 132.991 59.5741 132.832 60.3568 132.832C61.1273 132.832 61.8061 132.979 62.3932 133.273C62.9802 133.554 63.4389 133.976 63.7691 134.539C64.0993 135.101 64.2644 135.811 64.2644 136.667C64.2644 137.266 64.1421 137.865 63.8975 138.465C63.6529 139.064 63.3227 139.651 62.9069 140.226C62.491 140.788 62.0263 141.333 61.5126 141.859C61.0112 142.384 60.4975 142.88 59.9716 143.344C59.4457 143.809 58.9442 144.231 58.4672 144.61H64.7047V145.895H56.1924ZM71.721 146.115C70.5836 146.115 69.6052 145.839 68.7858 145.289C67.9785 144.727 67.3548 143.95 66.9145 142.959C66.4742 141.956 66.2541 140.794 66.2541 139.474C66.2541 138.153 66.4742 136.997 66.9145 136.006C67.3548 135.003 67.9785 134.227 68.7858 133.676C69.6052 133.114 70.5836 132.832 71.721 132.832C72.8462 132.832 73.8124 133.114 74.6196 133.676C75.4268 134.227 76.0445 135.003 76.4725 136.006C76.9128 136.997 77.133 138.153 77.133 139.474C77.133 140.794 76.9128 141.956 76.4725 142.959C76.0445 143.95 75.4268 144.727 74.6196 145.289C73.8124 145.839 72.8462 146.115 71.721 146.115ZM71.7027 144.757C72.4487 144.757 73.1092 144.549 73.684 144.133C74.2711 143.705 74.7297 143.1 75.0599 142.317C75.3902 141.522 75.5553 140.574 75.5553 139.474C75.5553 138.373 75.3902 137.431 75.0599 136.648C74.7297 135.853 74.2711 135.248 73.684 134.832C73.1092 134.416 72.4487 134.208 71.7027 134.208C70.9566 134.208 70.2901 134.416 69.703 134.832C69.1282 135.248 68.6696 135.853 68.3271 136.648C67.9969 137.431 67.8318 138.373 67.8318 139.474C67.8318 140.574 67.9969 141.522 68.3271 142.317C68.6696 143.1 69.1282 143.705 69.703 144.133C70.2901 144.549 70.9566 144.757 71.7027 144.757ZM78.9989 145.895V144.812C79.8795 144.127 80.7051 143.436 81.4756 142.739C82.2583 142.042 82.9554 141.351 83.567 140.666C84.1785 139.969 84.6555 139.29 84.9979 138.63C85.3526 137.969 85.5299 137.333 85.5299 136.722C85.5299 136.269 85.4504 135.853 85.2914 135.474C85.1325 135.083 84.8817 134.765 84.5393 134.52C84.1968 134.276 83.7321 134.153 83.145 134.153C82.5702 134.153 82.0932 134.282 81.7141 134.539C81.3349 134.783 81.0475 135.113 80.8518 135.529C80.6684 135.933 80.5766 136.379 80.5766 136.869H79.0906C79.1029 136.025 79.2802 135.303 79.6227 134.704C79.9774 134.092 80.4604 133.627 81.072 133.309C81.6835 132.991 82.3806 132.832 83.1634 132.832C83.9339 132.832 84.6127 132.979 85.1997 133.273C85.7868 133.554 86.2454 133.976 86.5756 134.539C86.9059 135.101 87.071 135.811 87.071 136.667C87.071 137.266 86.9487 137.865 86.7041 138.465C86.4594 139.064 86.1292 139.651 85.7134 140.226C85.2976 140.788 84.8328 141.333 84.3191 141.859C83.8177 142.384 83.304 142.88 82.7781 143.344C82.2522 143.809 81.7508 144.231 81.2738 144.61H87.5113V145.895H78.9989ZM91.0927 145.895V134.777L88.9462 135.291V134.208L91.6063 133.053H92.652V145.895H91.0927Z" fill="#67757C"/>
<circle cx="134.168" cy="139.893" r="5.73298" fill="#1E4DB7"/>
<path d="M150.229 145.895V144.812C151.11 144.127 151.935 143.436 152.706 142.739C153.488 142.042 154.186 141.351 154.797 140.666C155.409 139.969 155.886 139.29 156.228 138.63C156.583 137.969 156.76 137.333 156.76 136.722C156.76 136.269 156.681 135.853 156.522 135.474C156.363 135.083 156.112 134.765 155.769 134.52C155.427 134.276 154.962 134.153 154.375 134.153C153.8 134.153 153.323 134.282 152.944 134.539C152.565 134.783 152.278 135.113 152.082 135.529C151.898 135.933 151.807 136.379 151.807 136.869H150.321C150.333 136.025 150.51 135.303 150.853 134.704C151.207 134.092 151.691 133.627 152.302 133.309C152.914 132.991 153.611 132.832 154.393 132.832C155.164 132.832 155.843 132.979 156.43 133.273C157.017 133.554 157.476 133.976 157.806 134.539C158.136 135.101 158.301 135.811 158.301 136.667C158.301 137.266 158.179 137.865 157.934 138.465C157.69 139.064 157.359 139.651 156.943 140.226C156.528 140.788 156.063 141.333 155.549 141.859C155.048 142.384 154.534 142.88 154.008 143.344C153.482 143.809 152.981 144.231 152.504 144.61H158.741V145.895H150.229ZM165.758 146.115C164.62 146.115 163.642 145.839 162.822 145.289C162.015 144.727 161.391 143.95 160.951 142.959C160.511 141.956 160.291 140.794 160.291 139.474C160.291 138.153 160.511 136.997 160.951 136.006C161.391 135.003 162.015 134.227 162.822 133.676C163.642 133.114 164.62 132.832 165.758 132.832C166.883 132.832 167.849 133.114 168.656 133.676C169.463 134.227 170.081 135.003 170.509 136.006C170.949 136.997 171.17 138.153 171.17 139.474C171.17 140.794 170.949 141.956 170.509 142.959C170.081 143.95 169.463 144.727 168.656 145.289C167.849 145.839 166.883 146.115 165.758 146.115ZM165.739 144.757C166.485 144.757 167.146 144.549 167.721 144.133C168.308 143.705 168.766 143.1 169.097 142.317C169.427 141.522 169.592 140.574 169.592 139.474C169.592 138.373 169.427 137.431 169.097 136.648C168.766 135.853 168.308 135.248 167.721 134.832C167.146 134.416 166.485 134.208 165.739 134.208C164.993 134.208 164.327 134.416 163.74 134.832C163.165 135.248 162.706 135.853 162.364 136.648C162.034 137.431 161.868 138.373 161.868 139.474C161.868 140.574 162.034 141.522 162.364 142.317C162.706 143.1 163.165 143.705 163.74 144.133C164.327 144.549 164.993 144.757 165.739 144.757ZM173.036 145.895V144.812C173.916 144.127 174.742 143.436 175.512 142.739C176.295 142.042 176.992 141.351 177.604 140.666C178.215 139.969 178.692 139.29 179.035 138.63C179.389 137.969 179.567 137.333 179.567 136.722C179.567 136.269 179.487 135.853 179.328 135.474C179.169 135.083 178.918 134.765 178.576 134.52C178.233 134.276 177.769 134.153 177.182 134.153C176.607 134.153 176.13 134.282 175.751 134.539C175.372 134.783 175.084 135.113 174.888 135.529C174.705 135.933 174.613 136.379 174.613 136.869H173.127C173.14 136.025 173.317 135.303 173.659 134.704C174.014 134.092 174.497 133.627 175.109 133.309C175.72 132.991 176.417 132.832 177.2 132.832C177.97 132.832 178.649 132.979 179.236 133.273C179.823 133.554 180.282 133.976 180.612 134.539C180.942 135.101 181.108 135.811 181.108 136.667C181.108 137.266 180.985 137.865 180.741 138.465C180.496 139.064 180.166 139.651 179.75 140.226C179.334 140.788 178.869 141.333 178.356 141.859C177.854 142.384 177.341 142.88 176.815 143.344C176.289 143.809 175.787 144.231 175.31 144.61H181.548V145.895H173.036ZM188.564 146.115C187.427 146.115 186.448 145.839 185.629 145.289C184.822 144.727 184.198 143.95 183.758 142.959C183.317 141.956 183.097 140.794 183.097 139.474C183.097 138.153 183.317 136.997 183.758 136.006C184.198 135.003 184.822 134.227 185.629 133.676C186.448 133.114 187.427 132.832 188.564 132.832C189.689 132.832 190.656 133.114 191.463 133.676C192.27 134.227 192.888 135.003 193.316 136.006C193.756 136.997 193.976 138.153 193.976 139.474C193.976 140.794 193.756 141.956 193.316 142.959C192.888 143.95 192.27 144.727 191.463 145.289C190.656 145.839 189.689 146.115 188.564 146.115ZM188.546 144.757C189.292 144.757 189.952 144.549 190.527 144.133C191.114 143.705 191.573 143.1 191.903 142.317C192.233 141.522 192.398 140.574 192.398 139.474C192.398 138.373 192.233 137.431 191.903 136.648C191.573 135.853 191.114 135.248 190.527 134.832C189.952 134.416 189.292 134.208 188.546 134.208C187.8 134.208 187.133 134.416 186.546 134.832C185.971 135.248 185.513 135.853 185.17 136.648C184.84 137.431 184.675 138.373 184.675 139.474C184.675 140.574 184.84 141.522 185.17 142.317C185.513 143.1 185.971 143.705 186.546 144.133C187.133 144.549 187.8 144.757 188.546 144.757Z" fill="#67757C"/>
<circle cx="40.1309" cy="171.893" r="5.73298" fill="#1A9BFC"/>
<path d="M56.1924 177.895V176.812C57.073 176.127 57.8985 175.436 58.669 174.739C59.4518 174.042 60.1489 173.351 60.7604 172.666C61.372 171.969 61.8489 171.29 62.1914 170.63C62.5461 169.969 62.7234 169.333 62.7234 168.722C62.7234 168.269 62.6439 167.853 62.4849 167.474C62.3259 167.083 62.0752 166.765 61.7327 166.52C61.3903 166.276 60.9255 166.153 60.3385 166.153C59.7637 166.153 59.2867 166.282 58.9075 166.539C58.5284 166.783 58.241 167.113 58.0453 167.529C57.8618 167.933 57.7701 168.379 57.7701 168.869H56.2841C56.2963 168.025 56.4737 167.303 56.8161 166.704C57.1708 166.092 57.6539 165.627 58.2654 165.309C58.877 164.991 59.5741 164.832 60.3568 164.832C61.1273 164.832 61.8061 164.979 62.3932 165.273C62.9802 165.554 63.4389 165.976 63.7691 166.539C64.0993 167.101 64.2644 167.811 64.2644 168.667C64.2644 169.266 64.1421 169.865 63.8975 170.465C63.6529 171.064 63.3227 171.651 62.9069 172.226C62.491 172.788 62.0263 173.333 61.5126 173.859C61.0112 174.384 60.4975 174.88 59.9716 175.344C59.4457 175.809 58.9442 176.231 58.4672 176.61H64.7047V177.895H56.1924ZM71.721 178.115C70.5836 178.115 69.6052 177.839 68.7858 177.289C67.9785 176.727 67.3548 175.95 66.9145 174.959C66.4742 173.956 66.2541 172.794 66.2541 171.474C66.2541 170.153 66.4742 168.997 66.9145 168.006C67.3548 167.003 67.9785 166.227 68.7858 165.676C69.6052 165.114 70.5836 164.832 71.721 164.832C72.8462 164.832 73.8124 165.114 74.6196 165.676C75.4268 166.227 76.0445 167.003 76.4725 168.006C76.9128 168.997 77.133 170.153 77.133 171.474C77.133 172.794 76.9128 173.956 76.4725 174.959C76.0445 175.95 75.4268 176.727 74.6196 177.289C73.8124 177.839 72.8462 178.115 71.721 178.115ZM71.7027 176.757C72.4487 176.757 73.1092 176.549 73.684 176.133C74.2711 175.705 74.7297 175.1 75.0599 174.317C75.3902 173.522 75.5553 172.574 75.5553 171.474C75.5553 170.373 75.3902 169.431 75.0599 168.648C74.7297 167.853 74.2711 167.248 73.684 166.832C73.1092 166.416 72.4487 166.208 71.7027 166.208C70.9566 166.208 70.2901 166.416 69.703 166.832C69.1282 167.248 68.6696 167.853 68.3271 168.648C67.9969 169.431 67.8318 170.373 67.8318 171.474C67.8318 172.574 67.9969 173.522 68.3271 174.317C68.6696 175.1 69.1282 175.705 69.703 176.133C70.2901 176.549 70.9566 176.757 71.7027 176.757ZM80.7374 177.895V166.777L78.591 167.291V166.208L81.2511 165.053H82.2968V177.895H80.7374ZM89.2428 178.115C88.4356 178.115 87.7445 177.956 87.1697 177.638C86.5949 177.32 86.1362 176.898 85.7938 176.372C85.4636 175.834 85.2618 175.247 85.1884 174.611H86.6193C86.7417 175.308 87.0352 175.846 87.4999 176.225C87.9647 176.592 88.5517 176.775 89.2611 176.775C89.9093 176.775 90.4841 176.58 90.9856 176.188C91.4993 175.797 91.909 175.198 92.2147 174.391C92.5205 173.583 92.6917 172.562 92.7284 171.327C92.7406 171.29 92.7468 171.26 92.7468 171.235C92.7468 171.198 92.7468 171.168 92.7468 171.143C92.5511 171.523 92.2759 171.877 91.9212 172.207C91.5665 172.525 91.1446 172.782 90.6554 172.978C90.1784 173.174 89.6341 173.271 89.0226 173.271C88.301 173.271 87.6161 173.1 86.9679 172.758C86.3319 172.415 85.8121 171.938 85.4085 171.327C85.0172 170.703 84.8215 169.975 84.8215 169.144C84.8215 168.422 84.9927 167.731 85.3352 167.071C85.6898 166.41 86.1974 165.872 86.8578 165.456C87.5305 165.04 88.3194 164.832 89.2244 164.832C90.1539 164.832 90.9367 165.01 91.5726 165.365C92.2086 165.707 92.7162 166.172 93.0953 166.759C93.4867 167.346 93.768 168.006 93.9392 168.74C94.1227 169.462 94.2144 170.202 94.2144 170.96C94.2144 172.366 94.0187 173.608 93.6273 174.684C93.236 175.76 92.6673 176.604 91.9212 177.216C91.1874 177.815 90.2946 178.115 89.2428 178.115ZM89.3345 171.932C89.9093 171.932 90.423 171.804 90.8755 171.547C91.328 171.278 91.6888 170.923 91.9579 170.483C92.227 170.043 92.3615 169.566 92.3615 169.052C92.3615 168.502 92.227 168.012 91.9579 167.584C91.6888 167.144 91.328 166.802 90.8755 166.557C90.423 166.312 89.9093 166.19 89.3345 166.19C88.7719 166.19 88.2643 166.318 87.8118 166.575C87.3593 166.82 87.0046 167.156 86.7478 167.584C86.5032 168.012 86.3809 168.508 86.3809 169.07C86.3809 169.645 86.5032 170.147 86.7478 170.575C87.0046 171.003 87.3593 171.339 87.8118 171.584C88.2643 171.816 88.7719 171.932 89.3345 171.932Z" fill="#67757C"/>
<circle cx="136.168" cy="171.893" r="5.73298" fill="#DBDBDB"/>
<path d="M152.229 177.895V176.812C153.11 176.127 153.935 175.436 154.706 174.739C155.488 174.042 156.186 173.351 156.797 172.666C157.409 171.969 157.886 171.29 158.228 170.63C158.583 169.969 158.76 169.333 158.76 168.722C158.76 168.269 158.681 167.853 158.522 167.474C158.363 167.083 158.112 166.765 157.769 166.52C157.427 166.276 156.962 166.153 156.375 166.153C155.8 166.153 155.323 166.282 154.944 166.539C154.565 166.783 154.278 167.113 154.082 167.529C153.898 167.933 153.807 168.379 153.807 168.869H152.321C152.333 168.025 152.51 167.303 152.853 166.704C153.207 166.092 153.691 165.627 154.302 165.309C154.914 164.991 155.611 164.832 156.393 164.832C157.164 164.832 157.843 164.979 158.43 165.273C159.017 165.554 159.476 165.976 159.806 166.539C160.136 167.101 160.301 167.811 160.301 168.667C160.301 169.266 160.179 169.865 159.934 170.465C159.69 171.064 159.359 171.651 158.943 172.226C158.528 172.788 158.063 173.333 157.549 173.859C157.048 174.384 156.534 174.88 156.008 175.344C155.482 175.809 154.981 176.231 154.504 176.61H160.741V177.895H152.229ZM167.758 178.115C166.62 178.115 165.642 177.839 164.822 177.289C164.015 176.727 163.391 175.95 162.951 174.959C162.511 173.956 162.291 172.794 162.291 171.474C162.291 170.153 162.511 168.997 162.951 168.006C163.391 167.003 164.015 166.227 164.822 165.676C165.642 165.114 166.62 164.832 167.758 164.832C168.883 164.832 169.849 165.114 170.656 165.676C171.463 166.227 172.081 167.003 172.509 168.006C172.949 168.997 173.17 170.153 173.17 171.474C173.17 172.794 172.949 173.956 172.509 174.959C172.081 175.95 171.463 176.727 170.656 177.289C169.849 177.839 168.883 178.115 167.758 178.115ZM167.739 176.757C168.485 176.757 169.146 176.549 169.721 176.133C170.308 175.705 170.766 175.1 171.097 174.317C171.427 173.522 171.592 172.574 171.592 171.474C171.592 170.373 171.427 169.431 171.097 168.648C170.766 167.853 170.308 167.248 169.721 166.832C169.146 166.416 168.485 166.208 167.739 166.208C166.993 166.208 166.327 166.416 165.74 166.832C165.165 167.248 164.706 167.853 164.364 168.648C164.034 169.431 163.868 170.373 163.868 171.474C163.868 172.574 164.034 173.522 164.364 174.317C164.706 175.1 165.165 175.705 165.74 176.133C166.327 176.549 166.993 176.757 167.739 176.757ZM176.774 177.895V166.777L174.628 167.291V166.208L177.288 165.053H178.333V177.895H176.774ZM185.298 178.115C184.454 178.115 183.696 177.962 183.023 177.656C182.362 177.338 181.837 176.904 181.445 176.354C181.066 175.791 180.876 175.143 180.876 174.409C180.876 173.883 180.974 173.394 181.17 172.941C181.378 172.489 181.671 172.097 182.051 171.767C182.43 171.425 182.87 171.186 183.371 171.052C182.674 170.807 182.136 170.428 181.757 169.914C181.378 169.401 181.188 168.844 181.188 168.245C181.188 167.609 181.353 167.034 181.684 166.52C182.014 166.007 182.485 165.597 183.096 165.291C183.708 164.985 184.442 164.832 185.298 164.832C186.142 164.832 186.869 164.985 187.481 165.291C188.092 165.597 188.563 166.007 188.893 166.52C189.224 167.034 189.389 167.609 189.389 168.245C189.389 168.844 189.199 169.401 188.82 169.914C188.441 170.428 187.909 170.807 187.224 171.052C187.725 171.186 188.16 171.425 188.527 171.767C188.906 172.097 189.199 172.489 189.407 172.941C189.615 173.394 189.719 173.883 189.719 174.409C189.719 175.143 189.523 175.791 189.132 176.354C188.741 176.904 188.209 177.338 187.536 177.656C186.875 177.962 186.129 178.115 185.298 178.115ZM185.298 176.757C186.264 176.757 186.986 176.537 187.463 176.097C187.939 175.644 188.178 175.051 188.178 174.317C188.178 173.485 187.915 172.856 187.389 172.428C186.863 171.999 186.166 171.785 185.298 171.785C184.417 171.785 183.714 171.999 183.188 172.428C182.674 172.856 182.417 173.485 182.417 174.317C182.417 175.051 182.656 175.644 183.133 176.097C183.61 176.537 184.332 176.757 185.298 176.757ZM185.298 170.501C186.068 170.501 186.68 170.299 187.132 169.896C187.597 169.492 187.829 168.972 187.829 168.336C187.829 167.615 187.603 167.071 187.151 166.704C186.698 166.337 186.08 166.153 185.298 166.153C184.515 166.153 183.897 166.337 183.445 166.704C182.992 167.071 182.766 167.615 182.766 168.336C182.766 168.972 182.992 169.492 183.445 169.896C183.897 170.299 184.515 170.501 185.298 170.501Z" fill="#67757C"/>
<path d="M380.67 109.269C380.67 144.414 352.179 172.905 317.034 172.905C281.889 172.905 253.398 144.414 253.398 109.269C253.398 74.1237 281.889 45.6328 317.034 45.6328C352.179 45.6328 380.67 74.1237 380.67 109.269ZM267.992 109.269C267.992 136.354 289.949 158.311 317.034 158.311C344.119 158.311 366.076 136.354 366.076 109.269C366.076 82.1837 344.119 60.2267 317.034 60.2267C289.949 60.2267 267.992 82.1837 267.992 109.269Z" fill="#DBDBDB"/>
<path d="M260.695 109.269C256.665 109.269 253.354 112.547 253.816 116.55C255.146 128.107 259.627 139.128 266.834 148.378C274.04 157.628 283.63 164.668 294.51 168.786C298.279 170.212 302.267 167.804 303.253 163.897V163.897C304.239 159.989 301.839 156.072 298.121 154.518C290.377 151.281 283.554 146.093 278.346 139.409C273.139 132.724 269.778 124.839 268.533 116.539C267.936 112.554 264.725 109.269 260.695 109.269V109.269Z" fill="#1A9BFC"/>
<path d="M295.396 161.287C293.849 165.008 295.604 169.323 299.477 170.435C309.076 173.19 319.224 173.657 329.096 171.751C341.365 169.383 352.666 163.454 361.588 154.706C370.51 145.957 376.659 134.775 379.268 122.554C381.367 112.721 381.099 102.566 378.533 92.9151C377.497 89.0205 373.217 87.1812 369.467 88.6557V88.6557C365.716 90.1302 363.929 94.3621 364.831 98.2899C366.427 105.237 366.496 112.479 364.995 119.507C362.985 128.925 358.246 137.543 351.37 144.285C344.494 151.028 335.785 155.597 326.33 157.422C319.273 158.784 312.034 158.574 305.12 156.842C301.21 155.863 296.944 157.566 295.396 161.287V161.287Z" fill="#1E4DB7"/>
<path d="M373.284 106.106C377.308 105.879 380.429 102.421 379.744 98.4498C378.741 92.6403 376.934 86.9864 374.366 81.6538C370.739 74.1249 365.665 67.3839 359.434 61.8159C353.202 56.2478 345.935 51.9617 338.047 49.2022C332.46 47.2478 326.639 46.0863 320.754 45.7416C316.731 45.506 313.644 48.995 313.87 53.0186V53.0186C314.097 57.0423 317.557 60.0642 321.569 60.4369C325.535 60.8053 329.451 61.6563 333.228 62.9776C339.307 65.1042 344.908 68.4074 349.71 72.6985C354.513 76.9896 358.423 82.1846 361.218 87.9869C362.954 91.5918 364.239 95.3873 365.049 99.2871C365.87 103.233 369.26 106.332 373.284 106.106V106.106Z" fill="#1A9BFC"/>
<g clip-path="url(#clip0_3858_15517)">
<path d="M314.167 122.457C314.801 122.457 315.314 121.944 315.314 121.311C315.314 120.677 314.801 120.164 314.167 120.164C313.534 120.164 313.021 120.677 313.021 121.311C313.021 121.944 313.534 122.457 314.167 122.457Z" fill="#BCC3D3" stroke="#BCC3D3" stroke-width="2.29319" stroke-linecap="round" stroke-linejoin="round"/>
<path d="M326.78 122.457C327.413 122.457 327.926 121.944 327.926 121.311C327.926 120.677 327.413 120.164 326.78 120.164C326.147 120.164 325.633 120.677 325.633 121.311C325.633 121.944 326.147 122.457 326.78 122.457Z" fill="#BCC3D3" stroke="#BCC3D3" stroke-width="2.29319" stroke-linecap="round" stroke-linejoin="round"/>
<path d="M304.995 98.3789H309.581L312.654 113.732C312.759 114.26 313.046 114.734 313.465 115.071C313.884 115.409 314.409 115.588 314.947 115.578H326.092C326.63 115.588 327.155 115.409 327.574 115.071C327.993 114.734 328.28 114.26 328.385 113.732L330.22 104.112H310.728" fill="#BCC3D3"/>
<path d="M304.995 98.3789H309.581L312.654 113.732C312.759 114.26 313.046 114.734 313.465 115.071C313.884 115.409 314.409 115.588 314.947 115.578H326.092C326.63 115.588 327.155 115.409 327.574 115.071C327.993 114.734 328.28 114.26 328.385 113.732L330.22 104.112H310.728" stroke="#BCC3D3" stroke-width="2.29319" stroke-linecap="round" stroke-linejoin="round"/>
</g>
<defs>
<clipPath id="clip0_3858_15517">
<rect width="27.5183" height="27.5183" fill="white" transform="translate(303.848 96.082)"/>
</clipPath>
</defs>
</svg>
